<svg width="400" height="565" viewBox="0 0 400 565" fill="none" xmlns="http://www.w3.org/2000/svg">
<rect width="400" height="565" fill="white"/>
<rect x="40" y="40" width="100" height="20" fill="#334155"/>
<rect x="40" y="70" width="200" height="10" fill="#94A3B8"/>
<line x1="40" y1="100" x2="360" y2="100" stroke="#E2E8F0" stroke-width="2"/>
<rect x="40" y="120" width="80" height="15" fill="#475569"/>
<rect x="40" y="145" width="320" height="6" fill="#CBD5E1"/>
<rect x="40" y="155" width="300" height="6" fill="#CBD5E1"/>
<rect x="40" y="165" width="280" height="6" fill="#CBD5E1"/>
<rect x="40" y="195" width="80" height="15" fill="#475569"/>
<rect x="40" y="220" width="320" height="6" fill="#CBD5E1"/>
<rect x="40" y="230" width="300" height="6" fill="#CBD5E1"/>
<rect x="40" y="260" width="80" height="15" fill="#475569"/>
<rect x="40" y="285" width="320" height="6" fill="#CBD5E1"/>
<rect x="40" y="295" width="150" height="6" fill="#CBD5E1"/>
<rect x="250" y="40" width="110" height="110" fill="#F1F5F9"/>
<text x="280" y="100" fill="#94A3B8" font-family="serif" font-size="14">PHOTO</text>
</svg>
