<svg width="400" height="565" viewBox="0 0 400 565" fill="none" xmlns="http://www.w3.org/2000/svg">
<rect width="400" height="565" fill="white"/>
<rect width="130" height="565" fill="#1E293B"/>
<rect x="150" y="40" width="150" height="25" fill="#3B82F6"/>
<rect x="150" y="75" width="200" height="8" fill="#94A3B8"/>
<rect x="150" y="120" width="100" height="15" fill="#0F172A"/>
<rect x="150" y="145" width="210" height="6" fill="#CBD5E1"/>
<rect x="150" y="155" width="190" height="6" fill="#CBD5E1"/>
<rect x="150" y="165" width="200" height="6" fill="#CBD5E1"/>
<rect x="150" y="200" width="100" height="15" fill="#0F172A"/>
<rect x="150" y="225" width="210" height="6" fill="#CBD5E1"/>
<rect x="150" y="235" width="180" height="6" fill="#CBD5E1"/>
<circle cx="65" cy="80" r="35" fill="#3B82F6"/>
<rect x="30" y="150" width="70" height="10" fill="#475569"/>
<rect x="30" y="170" width="60" height="4" fill="#64748B"/>
<rect x="30" y="180" width="50" height="4" fill="#64748B"/>
<rect x="30" y="220" width="70" height="10" fill="#475569"/>
<rect x="30" y="240" width="60" height="4" fill="#64748B"/>
<rect x="30" y="250" width="50" height="4" fill="#64748B"/>
</svg>
